<svg width="1210" height="1242" xmlns="http://www.w3.org/2000/svg" xmlns:xlink="http://www.w3.org/1999/xlink" xml:space="preserve" overflow="hidden"><defs><clipPath id="clip0"><rect x="2617" y="825" width="1210" height="1242"/></clipPath><linearGradient x1="3736.5" y1="1775" x2="3736.5" y2="1236" gradientUnits="userSpaceOnUse" spreadMethod="reflect" id="fill1"><stop offset="0" stop-color="#386CC9" stop-opacity="1"/><stop offset="0.00757576" stop-color="#396DC9" stop-opacity="1"/><stop offset="0.0151515" stop-color="#3B6ECA" stop-opacity="1"/><stop offset="0.0227273" stop-color="#3D6FCA" stop-opacity="1"/><stop offset="0.030303" stop-color="#3F71CB" stop-opacity="1"/><stop offset="0.0378788" stop-color="#4172CB" stop-opacity="1"/><stop offset="0.0454545" stop-color="#4373CC" stop-opacity="1"/><stop offset="0.0530303" stop-color="#4475CD" stop-opacity="1"/><stop offset="0.0606061" stop-color="#4676CD" stop-opacity="1"/><stop offset="0.0681818" stop-color="#4877CE" stop-opacity="1"/><stop offset="0.0757576" stop-color="#4A78CE" stop-opacity="1"/><stop offset="0.0833333" stop-color="#4C79CF" stop-opacity="1"/><stop offset="0.0909091" stop-color="#4D7BCF" stop-opacity="1"/><stop offset="0.0984849" stop-color="#4F7CD0" stop-opacity="1"/><stop offset="0.106061" stop-color="#517DD0" stop-opacity="1"/><stop offset="0.113636" stop-color="#527ED1" stop-opacity="1"/><stop offset="0.121212" stop-color="#5480D2" stop-opacity="1"/><stop offset="0.128788" stop-color="#5681D2" stop-opacity="1"/><stop offset="0.136364" stop-color="#5782D3" stop-opacity="1"/><stop offset="0.143939" stop-color="#5983D3" stop-opacity="1"/><stop offset="0.151515" stop-color="#5B84D4" stop-opacity="1"/><stop offset="0.159091" stop-color="#5C85D4" stop-opacity="1"/><stop offset="0.166667" stop-color="#5E86D5" stop-opacity="1"/><stop offset="0.174242" stop-color="#6088D5" stop-opacity="1"/><stop offset="0.181818" stop-color="#6189D6" stop-opacity="1"/><stop offset="0.189394" stop-color="#638AD6" stop-opacity="1"/><stop offset="0.19697" stop-color="#648BD7" stop-opacity="1"/><stop offset="0.204545" stop-color="#668CD7" stop-opacity="1"/><stop offset="0.212121" stop-color="#678DD8" stop-opacity="1"/><stop offset="0.219697" stop-color="#698ED8" stop-opacity="1"/><stop offset="0.227273" stop-color="#6A8FD9" stop-opacity="1"/><stop offset="0.234848" stop-color="#6C90D9" stop-opacity="1"/><stop offset="0.242424" stop-color="#6D91DA" stop-opacity="1"/><stop offset="0.25" stop-color="#6F92DA" stop-opacity="1"/><stop offset="0.257576" stop-color="#7093DA" stop-opacity="1"/><stop offset="0.265152" stop-color="#7294DB" stop-opacity="1"/><stop offset="0.272727" stop-color="#7395DB" stop-opacity="1"/><stop offset="0.280303" stop-color="#7596DC" stop-opacity="1"/><stop offset="0.287879" stop-color="#7697DC" stop-opacity="1"/><stop offset="0.295455" stop-color="#7898DD" stop-opacity="1"/><stop offset="0.30303" stop-color="#7999DD" stop-opacity="1"/><stop offset="0.310606" stop-color="#7A9ADE" stop-opacity="1"/><stop offset="0.318182" stop-color="#7C9BDE" stop-opacity="1"/><stop offset="0.325758" stop-color="#7D9CDE" stop-opacity="1"/><stop offset="0.333333" stop-color="#7E9DDF" stop-opacity="1"/><stop offset="0.340909" stop-color="#809EDF" stop-opacity="1"/><stop offset="0.348485" stop-color="#819FE0" stop-opacity="1"/><stop offset="0.356061" stop-color="#82A0E0" stop-opacity="1"/><stop offset="0.363636" stop-color="#84A1E1" stop-opacity="1"/><stop offset="0.371212" stop-color="#85A2E1" stop-opacity="1"/><stop offset="0.378788" stop-color="#86A2E1" stop-opacity="1"/><stop offset="0.386364" stop-color="#87A3E2" stop-opacity="1"/><stop offset="0.393939" stop-color="#88A4E2" stop-opacity="1"/><stop offset="0.401515" stop-color="#8AA5E2" stop-opacity="1"/><stop offset="0.409091" stop-color="#8BA6E3" stop-opacity="1"/><stop offset="0.416667" stop-color="#8CA7E3" stop-opacity="1"/><stop offset="0.424242" stop-color="#8DA7E4" stop-opacity="1"/><stop offset="0.431818" stop-color="#8EA8E4" stop-opacity="1"/><stop offset="0.439394" stop-color="#90A9E4" stop-opacity="1"/><stop offset="0.44697" stop-color="#91AAE5" stop-opacity="1"/><stop offset="0.454545" stop-color="#92ABE5" stop-opacity="1"/><stop offset="0.462121" stop-color="#93ABE5" stop-opacity="1"/><stop offset="0.469697" stop-color="#94ACE6" stop-opacity="1"/><stop offset="0.477273" stop-color="#95ADE6" stop-opacity="1"/><stop offset="0.484848" stop-color="#96AEE6" stop-opacity="1"/><stop offset="0.492424" stop-color="#97AEE7" stop-opacity="1"/><stop offset="0.5" stop-color="#98AFE7" stop-opacity="1"/><stop offset="0.507576" stop-color="#99B0E7" stop-opacity="1"/><stop offset="0.515152" stop-color="#9AB1E8" stop-opacity="1"/><stop offset="0.522727" stop-color="#9BB1E8" stop-opacity="1"/><stop offset="0.530303" stop-color="#9CB2E8" stop-opacity="1"/><stop offset="0.537879" stop-color="#9DB3E9" stop-opacity="1"/><stop offset="0.545455" stop-color="#9EB3E9" stop-opacity="1"/><stop offset="0.55303" stop-color="#9FB4E9" stop-opacity="1"/><stop offset="0.560606" stop-color="#A0B5EA" stop-opacity="1"/><stop offset="0.568182" stop-color="#A1B5EA" stop-opacity="1"/><stop offset="0.575758" stop-color="#A2B6EA" stop-opacity="1"/><stop offset="0.583333" stop-color="#A3B6EA" stop-opacity="1"/><stop offset="0.590909" stop-color="#A4B7EB" stop-opacity="1"/><stop offset="0.598485" stop-color="#A4B8EB" stop-opacity="1"/><stop offset="0.606061" stop-color="#A5B8EB" stop-opacity="1"/><stop offset="0.613636" stop-color="#A6B9EB" stop-opacity="1"/><stop offset="0.621212" stop-color="#A7B9EC" stop-opacity="1"/><stop offset="0.628788" stop-color="#A8BAEC" stop-opacity="1"/><stop offset="0.636364" stop-color="#A9BBEC" stop-opacity="1"/><stop offset="0.643939" stop-color="#A9BBEC" stop-opacity="1"/><stop offset="0.651515" stop-color="#AABCED" stop-opacity="1"/><stop offset="0.659091" stop-color="#ABBCED" stop-opacity="1"/><stop offset="0.666667" stop-color="#ACBDED" stop-opacity="1"/><stop offset="0.674242" stop-color="#ACBDED" stop-opacity="1"/><stop offset="0.681818" stop-color="#ADBEEE" stop-opacity="1"/><stop offset="0.689394" stop-color="#AEBEEE" stop-opacity="1"/><stop offset="0.69697" stop-color="#AEBFEE" stop-opacity="1"/><stop offset="0.704545" stop-color="#AFBFEE" stop-opacity="1"/><stop offset="0.712121" stop-color="#B0BFEE" stop-opacity="1"/><stop offset="0.719697" stop-color="#B0C0EF" stop-opacity="1"/><stop offset="0.727273" stop-color="#B1C0EF" stop-opacity="1"/><stop offset="0.734848" stop-color="#B1C1EF" stop-opacity="1"/><stop offset="0.742424" stop-color="#B2C1EF" stop-opacity="1"/><stop offset="0.75" stop-color="#B3C2EF" stop-opacity="1"/><stop offset="0.757576" stop-color="#B3C2F0" stop-opacity="1"/><stop offset="0.765152" stop-color="#B4C2F0" stop-opacity="1"/><stop offset="0.772727" stop-color="#B4C3F0" stop-opacity="1"/><stop offset="0.780303" stop-color="#B5C3F0" stop-opacity="1"/><stop offset="0.787879" stop-color="#B5C3F0" stop-opacity="1"/><stop offset="0.795455" stop-color="#B6C4F0" stop-opacity="1"/><stop offset="0.80303" stop-color="#B6C4F1" stop-opacity="1"/><stop offset="0.810606" stop-color="#B7C4F1" stop-opacity="1"/><stop offset="0.818182" stop-color="#B7C5F1" stop-opacity="1"/><stop offset="0.825758" stop-color="#B7C5F1" stop-opacity="1"/><stop offset="0.833333" stop-color="#B8C5F1" stop-opacity="1"/><stop offset="0.840909" stop-color="#B8C6F1" stop-opacity="1"/><stop offset="0.848485" stop-color="#B9C6F1" stop-opacity="1"/><stop offset="0.856061" stop-color="#B9C6F1" stop-opacity="1"/><stop offset="0.863636" stop-color="#B9C6F1" stop-opacity="1"/><stop offset="0.871212" stop-color="#BAC7F2" stop-opacity="1"/><stop offset="0.878788" stop-color="#BAC7F2" stop-opacity="1"/><stop offset="0.886364" stop-color="#BAC7F2" stop-opacity="1"/><stop offset="0.893939" stop-color="#BBC7F2" stop-opacity="1"/><stop offset="0.901515" stop-color="#BBC7F2" stop-opacity="1"/><stop offset="0.909091" stop-color="#BBC7F2" stop-opacity="1"/><stop offset="0.916667" stop-color="#BBC8F2" stop-opacity="1"/><stop offset="0.924242" stop-color="#BBC8F2" stop-opacity="1"/><stop offset="0.931818" stop-color="#BCC8F2" stop-opacity="1"/><stop offset="0.939394" stop-color="#BCC8F2" stop-opacity="1"/><stop offset="0.94697" stop-color="#BCC8F2" stop-opacity="1"/><stop offset="0.954545" stop-color="#BCC8F2" stop-opacity="1"/><stop offset="0.962121" stop-color="#BCC8F2" stop-opacity="1"/><stop offset="0.969697" stop-color="#BCC8F2" stop-opacity="1"/><stop offset="0.977273" stop-color="#BCC8F2" stop-opacity="1"/><stop offset="0.984848" stop-color="#BCC8F2" stop-opacity="1"/><stop offset="0.992424" stop-color="#BCC8F2" stop-opacity="1"/><stop offset="1" stop-color="#BDC9F3" stop-opacity="1"/></linearGradient></defs><g clip-path="url(#clip0)" transform="translate(-2617 -825)"><path d="M3332.38 969C3468.9 969 3592.49 1024.29 3681.96 1113.69L3690 1122.53 3624.1 1185.94 3617.57 1178.03C3544.58 1105.1 3443.75 1059.99 3332.38 1059.99 3109.63 1059.99 2929.06 1240.42 2929.06 1463 2929.06 1685.58 3109.63 1866.01 3332.38 1866.01 3401.99 1866.01 3467.48 1848.39 3524.62 1817.37L3548.61 1802.81 3589.56 1884.31 3568.03 1897.38C3497.98 1935.4 3417.7 1957 3332.38 1957 3059.34 1957 2838 1735.83 2838 1463 2838 1190.17 3059.34 969 3332.38 969Z" fill="#B5C3F0" fill-rule="evenodd" fill-opacity="1"/><path d="M3643.95 832.21C3650.1 822.803 3676.29 840.744 3670.92 851.061L3368.4 1424.63 3377.57 1431.01C3385.63 1443.58 3387.83 1458.24 3384.87 1471.77L3372.76 1489.17 3374.11 1488.97C3381.84 1501.15 3379.44 1506.45 3397.3 1525.52 3415.15 1544.6 3443 1536.94 3455.62 1559.42L3711.53 2046.67C3716.6 2056.7 3687.97 2070.4 3681.72 2060.58L3335.69 1510.45 3335.83 1510.31 3320.45 1513.07C3306.92 1510.11 3294.52 1501.99 3286.46 1489.41L3283.02 1470.21 3277.84 1483.38C3263.42 1483.98 3260.04 1479.25 3234.59 1485.18 3209.14 1491.1 3201.84 1519.05 3176.07 1518.73L2626.15 1496.68C2614.93 1496.05 2617.38 1464.4 2629.01 1463.9L3278.45 1439.37 3280.39 1446.86 3302.81 1414.65 3334.37 1409 3329.9 1403.39C3336.58 1390.61 3342.37 1390.04 3349.95 1365.03 3357.53 1340.03 3336.97 1319.75 3350.12 1297.58Z" fill="#396DCB" fill-rule="evenodd" fill-opacity="1"/><path d="M3611 1153C3611 1128.15 3631.15 1108 3656 1108 3680.85 1108 3701 1128.15 3701 1153 3701 1177.85 3680.85 1198 3656 1198 3631.15 1198 3611 1177.85 3611 1153Z" fill="#B5C3F0" fill-rule="evenodd" fill-opacity="1"/><path d="M3693.03 1685.01C3717.89 1685.01 3738.05 1705.15 3738.05 1730 3738.05 1754.86 3717.89 1775 3693.03 1775 3668.16 1775 3648 1754.86 3648 1730 3648 1705.15 3668.16 1685.01 3693.03 1685.01ZM3762.09 1543.81C3786.95 1543.81 3807.11 1563.96 3807.11 1588.81 3807.11 1613.66 3786.95 1633.81 3762.09 1633.81 3737.22 1633.81 3717.06 1613.66 3717.06 1588.81 3717.06 1563.96 3737.22 1543.81 3762.09 1543.81ZM3779.97 1388.73C3804.84 1388.73 3825 1408.88 3825 1433.73 3825 1458.58 3804.84 1478.72 3779.97 1478.72 3755.11 1478.72 3734.95 1458.58 3734.95 1433.73 3734.95 1408.88 3755.11 1388.73 3779.97 1388.73ZM3745.36 1236C3770.23 1236 3790.38 1256.15 3790.38 1281 3790.38 1305.85 3770.23 1325.99 3745.36 1325.99 3720.49 1325.99 3700.33 1305.85 3700.33 1281 3700.33 1256.15 3720.49 1236 3745.36 1236Z" fill="url(#fill1)" fill-rule="evenodd"/></g></svg>