<svg width="1041" height="312" xmlns="http://www.w3.org/2000/svg" xmlns:xlink="http://www.w3.org/1999/xlink" xml:space="preserve" overflow="hidden"><defs><clipPath id="clip0"><rect x="2754" y="334" width="1041" height="312"/></clipPath><linearGradient x1="3084.01" y1="471.761" x2="3747.44" y2="471.761" gradientUnits="userSpaceOnUse" spreadMethod="reflect" id="fill1"><stop offset="0" stop-color="#BDC9F3" stop-opacity="1"/><stop offset="0.00757576" stop-color="#BCC8F2" stop-opacity="1"/><stop offset="0.0151515" stop-color="#BCC8F2" stop-opacity="1"/><stop offset="0.0227273" stop-color="#BCC8F2" stop-opacity="1"/><stop offset="0.030303" stop-color="#BCC8F2" stop-opacity="1"/><stop offset="0.0378788" stop-color="#BCC8F2" stop-opacity="1"/><stop offset="0.0454545" stop-color="#BCC8F2" stop-opacity="1"/><stop offset="0.0530303" stop-color="#BCC8F2" stop-opacity="1"/><stop offset="0.0606061" stop-color="#BCC8F2" stop-opacity="1"/><stop offset="0.0681818" stop-color="#BCC8F2" stop-opacity="1"/><stop offset="0.0757576" stop-color="#BBC8F2" stop-opacity="1"/><stop offset="0.0833333" stop-color="#BBC8F2" stop-opacity="1"/><stop offset="0.0909091" stop-color="#BBC7F2" stop-opacity="1"/><stop offset="0.0984849" stop-color="#BBC7F2" stop-opacity="1"/><stop offset="0.106061" stop-color="#BBC7F2" stop-opacity="1"/><stop offset="0.113636" stop-color="#BAC7F2" stop-opacity="1"/><stop offset="0.121212" stop-color="#BAC7F2" stop-opacity="1"/><stop offset="0.128788" stop-color="#BAC7F2" stop-opacity="1"/><stop offset="0.136364" stop-color="#B9C6F1" stop-opacity="1"/><stop offset="0.143939" stop-color="#B9C6F1" stop-opacity="1"/><stop offset="0.151515" stop-color="#B9C6F1" stop-opacity="1"/><stop offset="0.159091" stop-color="#B8C6F1" stop-opacity="1"/><stop offset="0.166667" stop-color="#B8C5F1" stop-opacity="1"/><stop offset="0.174242" stop-color="#B7C5F1" stop-opacity="1"/><stop offset="0.181818" stop-color="#B7C5F1" stop-opacity="1"/><stop offset="0.189394" stop-color="#B7C4F1" stop-opacity="1"/><stop offset="0.19697" stop-color="#B6C4F1" stop-opacity="1"/><stop offset="0.204545" stop-color="#B6C4F0" stop-opacity="1"/><stop offset="0.212121" stop-color="#B5C3F0" stop-opacity="1"/><stop offset="0.219697" stop-color="#B5C3F0" stop-opacity="1"/><stop offset="0.227273" stop-color="#B4C3F0" stop-opacity="1"/><stop offset="0.234848" stop-color="#B4C2F0" stop-opacity="1"/><stop offset="0.242424" stop-color="#B3C2F0" stop-opacity="1"/><stop offset="0.25" stop-color="#B3C2EF" stop-opacity="1"/><stop offset="0.257576" stop-color="#B2C1EF" stop-opacity="1"/><stop offset="0.265152" stop-color="#B1C1EF" stop-opacity="1"/><stop offset="0.272727" stop-color="#B1C0EF" stop-opacity="1"/><stop offset="0.280303" stop-color="#B0C0EF" stop-opacity="1"/><stop offset="0.287879" stop-color="#B0BFEE" stop-opacity="1"/><stop offset="0.295455" stop-color="#AFBFEE" stop-opacity="1"/><stop offset="0.30303" stop-color="#AEBFEE" stop-opacity="1"/><stop offset="0.310606" stop-color="#AEBEEE" stop-opacity="1"/><stop offset="0.318182" stop-color="#ADBEEE" stop-opacity="1"/><stop offset="0.325758" stop-color="#ACBDED" stop-opacity="1"/><stop offset="0.333333" stop-color="#ACBDED" stop-opacity="1"/><stop offset="0.340909" stop-color="#ABBCED" stop-opacity="1"/><stop offset="0.348485" stop-color="#AABCED" stop-opacity="1"/><stop offset="0.356061" stop-color="#A9BBEC" stop-opacity="1"/><stop offset="0.363636" stop-color="#A9BBEC" stop-opacity="1"/><stop offset="0.371212" stop-color="#A8BAEC" stop-opacity="1"/><stop offset="0.378788" stop-color="#A7B9EC" stop-opacity="1"/><stop offset="0.386364" stop-color="#A6B9EB" stop-opacity="1"/><stop offset="0.393939" stop-color="#A5B8EB" stop-opacity="1"/><stop offset="0.401515" stop-color="#A4B8EB" stop-opacity="1"/><stop offset="0.409091" stop-color="#A4B7EB" stop-opacity="1"/><stop offset="0.416667" stop-color="#A3B6EA" stop-opacity="1"/><stop offset="0.424242" stop-color="#A2B6EA" stop-opacity="1"/><stop offset="0.431818" stop-color="#A1B5EA" stop-opacity="1"/><stop offset="0.439394" stop-color="#A0B5EA" stop-opacity="1"/><stop offset="0.44697" stop-color="#9FB4E9" stop-opacity="1"/><stop offset="0.454545" stop-color="#9EB3E9" stop-opacity="1"/><stop offset="0.462121" stop-color="#9DB3E9" stop-opacity="1"/><stop offset="0.469697" stop-color="#9CB2E8" stop-opacity="1"/><stop offset="0.477273" stop-color="#9BB1E8" stop-opacity="1"/><stop offset="0.484848" stop-color="#9AB1E8" stop-opacity="1"/><stop offset="0.492424" stop-color="#99B0E7" stop-opacity="1"/><stop offset="0.5" stop-color="#98AFE7" stop-opacity="1"/><stop offset="0.507576" stop-color="#97AEE7" stop-opacity="1"/><stop offset="0.515152" stop-color="#96AEE6" stop-opacity="1"/><stop offset="0.522727" stop-color="#95ADE6" stop-opacity="1"/><stop offset="0.530303" stop-color="#94ACE6" stop-opacity="1"/><stop offset="0.537879" stop-color="#93ABE5" stop-opacity="1"/><stop offset="0.545455" stop-color="#92ABE5" stop-opacity="1"/><stop offset="0.55303" stop-color="#91AAE5" stop-opacity="1"/><stop offset="0.560606" stop-color="#90A9E4" stop-opacity="1"/><stop offset="0.568182" stop-color="#8EA8E4" stop-opacity="1"/><stop offset="0.575758" stop-color="#8DA7E4" stop-opacity="1"/><stop offset="0.583333" stop-color="#8CA7E3" stop-opacity="1"/><stop offset="0.590909" stop-color="#8BA6E3" stop-opacity="1"/><stop offset="0.598485" stop-color="#8AA5E2" stop-opacity="1"/><stop offset="0.606061" stop-color="#88A4E2" stop-opacity="1"/><stop offset="0.613636" stop-color="#87A3E2" stop-opacity="1"/><stop offset="0.621212" stop-color="#86A2E1" stop-opacity="1"/><stop offset="0.628788" stop-color="#85A2E1" stop-opacity="1"/><stop offset="0.636364" stop-color="#84A1E1" stop-opacity="1"/><stop offset="0.643939" stop-color="#82A0E0" stop-opacity="1"/><stop offset="0.651515" stop-color="#819FE0" stop-opacity="1"/><stop offset="0.659091" stop-color="#809EDF" stop-opacity="1"/><stop offset="0.666667" stop-color="#7E9DDF" stop-opacity="1"/><stop offset="0.674242" stop-color="#7D9CDE" stop-opacity="1"/><stop offset="0.681818" stop-color="#7C9BDE" stop-opacity="1"/><stop offset="0.689394" stop-color="#7A9ADE" stop-opacity="1"/><stop offset="0.69697" stop-color="#7999DD" stop-opacity="1"/><stop offset="0.704545" stop-color="#7898DD" stop-opacity="1"/><stop offset="0.712121" stop-color="#7697DC" stop-opacity="1"/><stop offset="0.719697" stop-color="#7596DC" stop-opacity="1"/><stop offset="0.727273" stop-color="#7395DB" stop-opacity="1"/><stop offset="0.734848" stop-color="#7294DB" stop-opacity="1"/><stop offset="0.742424" stop-color="#7093DA" stop-opacity="1"/><stop offset="0.75" stop-color="#6F92DA" stop-opacity="1"/><stop offset="0.757576" stop-color="#6D91DA" stop-opacity="1"/><stop offset="0.765152" stop-color="#6C90D9" stop-opacity="1"/><stop offset="0.772727" stop-color="#6A8FD9" stop-opacity="1"/><stop offset="0.780303" stop-color="#698ED8" stop-opacity="1"/><stop offset="0.787879" stop-color="#678DD8" stop-opacity="1"/><stop offset="0.795455" stop-color="#668CD7" stop-opacity="1"/><stop offset="0.80303" stop-color="#648BD7" stop-opacity="1"/><stop offset="0.810606" stop-color="#638AD6" stop-opacity="1"/><stop offset="0.818182" stop-color="#6189D6" stop-opacity="1"/><stop offset="0.825758" stop-color="#6088D5" stop-opacity="1"/><stop offset="0.833333" stop-color="#5E86D5" stop-opacity="1"/><stop offset="0.840909" stop-color="#5C85D4" stop-opacity="1"/><stop offset="0.848485" stop-color="#5B84D4" stop-opacity="1"/><stop offset="0.856061" stop-color="#5983D3" stop-opacity="1"/><stop offset="0.863636" stop-color="#5782D3" stop-opacity="1"/><stop offset="0.871212" stop-color="#5681D2" stop-opacity="1"/><stop offset="0.878788" stop-color="#5480D2" stop-opacity="1"/><stop offset="0.886364" stop-color="#527ED1" stop-opacity="1"/><stop offset="0.893939" stop-color="#517DD0" stop-opacity="1"/><stop offset="0.901515" stop-color="#4F7CD0" stop-opacity="1"/><stop offset="0.909091" stop-color="#4D7BCF" stop-opacity="1"/><stop offset="0.916667" stop-color="#4C79CF" stop-opacity="1"/><stop offset="0.924242" stop-color="#4A78CE" stop-opacity="1"/><stop offset="0.931818" stop-color="#4877CE" stop-opacity="1"/><stop offset="0.939394" stop-color="#4676CD" stop-opacity="1"/><stop offset="0.94697" stop-color="#4475CD" stop-opacity="1"/><stop offset="0.954545" stop-color="#4373CC" stop-opacity="1"/><stop offset="0.962121" stop-color="#4172CB" stop-opacity="1"/><stop offset="0.969697" stop-color="#3F71CB" stop-opacity="1"/><stop offset="0.977273" stop-color="#3D6FCA" stop-opacity="1"/><stop offset="0.984848" stop-color="#3B6ECA" stop-opacity="1"/><stop offset="0.992424" stop-color="#396DC9" stop-opacity="1"/><stop offset="1" stop-color="#386CC9" stop-opacity="1"/></linearGradient><linearGradient x1="3106" y1="553.5" x2="3697" y2="553.5" gradientUnits="userSpaceOnUse" spreadMethod="reflect" id="fill2"><stop offset="0" stop-color="#BDC9F3" stop-opacity="1"/><stop offset="0.00757576" stop-color="#BCC8F2" stop-opacity="1"/><stop offset="0.0151515" stop-color="#BCC8F2" stop-opacity="1"/><stop offset="0.0227273" stop-color="#BCC8F2" stop-opacity="1"/><stop offset="0.030303" stop-color="#BCC8F2" stop-opacity="1"/><stop offset="0.0378788" stop-color="#BCC8F2" stop-opacity="1"/><stop offset="0.0454545" stop-color="#BCC8F2" stop-opacity="1"/><stop offset="0.0530303" stop-color="#BCC8F2" stop-opacity="1"/><stop offset="0.0606061" stop-color="#BCC8F2" stop-opacity="1"/><stop offset="0.0681818" stop-color="#BCC8F2" stop-opacity="1"/><stop offset="0.0757576" stop-color="#BBC8F2" stop-opacity="1"/><stop offset="0.0833333" stop-color="#BBC8F2" stop-opacity="1"/><stop offset="0.0909091" stop-color="#BBC7F2" stop-opacity="1"/><stop offset="0.0984849" stop-color="#BBC7F2" stop-opacity="1"/><stop offset="0.106061" stop-color="#BBC7F2" stop-opacity="1"/><stop offset="0.113636" stop-color="#BAC7F2" stop-opacity="1"/><stop offset="0.121212" stop-color="#BAC7F2" stop-opacity="1"/><stop offset="0.128788" stop-color="#BAC7F2" stop-opacity="1"/><stop offset="0.136364" stop-color="#B9C6F1" stop-opacity="1"/><stop offset="0.143939" stop-color="#B9C6F1" stop-opacity="1"/><stop offset="0.151515" stop-color="#B9C6F1" stop-opacity="1"/><stop offset="0.159091" stop-color="#B8C6F1" stop-opacity="1"/><stop offset="0.166667" stop-color="#B8C5F1" stop-opacity="1"/><stop offset="0.174242" stop-color="#B7C5F1" stop-opacity="1"/><stop offset="0.181818" stop-color="#B7C5F1" stop-opacity="1"/><stop offset="0.189394" stop-color="#B7C4F1" stop-opacity="1"/><stop offset="0.19697" stop-color="#B6C4F1" stop-opacity="1"/><stop offset="0.204545" stop-color="#B6C4F0" stop-opacity="1"/><stop offset="0.212121" stop-color="#B5C3F0" stop-opacity="1"/><stop offset="0.219697" stop-color="#B5C3F0" stop-opacity="1"/><stop offset="0.227273" stop-color="#B4C3F0" stop-opacity="1"/><stop offset="0.234848" stop-color="#B4C2F0" stop-opacity="1"/><stop offset="0.242424" stop-color="#B3C2F0" stop-opacity="1"/><stop offset="0.25" stop-color="#B3C2EF" stop-opacity="1"/><stop offset="0.257576" stop-color="#B2C1EF" stop-opacity="1"/><stop offset="0.265152" stop-color="#B1C1EF" stop-opacity="1"/><stop offset="0.272727" stop-color="#B1C0EF" stop-opacity="1"/><stop offset="0.280303" stop-color="#B0C0EF" stop-opacity="1"/><stop offset="0.287879" stop-color="#B0BFEE" stop-opacity="1"/><stop offset="0.295455" stop-color="#AFBFEE" stop-opacity="1"/><stop offset="0.30303" stop-color="#AEBFEE" stop-opacity="1"/><stop offset="0.310606" stop-color="#AEBEEE" stop-opacity="1"/><stop offset="0.318182" stop-color="#ADBEEE" stop-opacity="1"/><stop offset="0.325758" stop-color="#ACBDED" stop-opacity="1"/><stop offset="0.333333" stop-color="#ACBDED" stop-opacity="1"/><stop offset="0.340909" stop-color="#ABBCED" stop-opacity="1"/><stop offset="0.348485" stop-color="#AABCED" stop-opacity="1"/><stop offset="0.356061" stop-color="#A9BBEC" stop-opacity="1"/><stop offset="0.363636" stop-color="#A9BBEC" stop-opacity="1"/><stop offset="0.371212" stop-color="#A8BAEC" stop-opacity="1"/><stop offset="0.378788" stop-color="#A7B9EC" stop-opacity="1"/><stop offset="0.386364" stop-color="#A6B9EB" stop-opacity="1"/><stop offset="0.393939" stop-color="#A5B8EB" stop-opacity="1"/><stop offset="0.401515" stop-color="#A4B8EB" stop-opacity="1"/><stop offset="0.409091" stop-color="#A4B7EB" stop-opacity="1"/><stop offset="0.416667" stop-color="#A3B6EA" stop-opacity="1"/><stop offset="0.424242" stop-color="#A2B6EA" stop-opacity="1"/><stop offset="0.431818" stop-color="#A1B5EA" stop-opacity="1"/><stop offset="0.439394" stop-color="#A0B5EA" stop-opacity="1"/><stop offset="0.44697" stop-color="#9FB4E9" stop-opacity="1"/><stop offset="0.454545" stop-color="#9EB3E9" stop-opacity="1"/><stop offset="0.462121" stop-color="#9DB3E9" stop-opacity="1"/><stop offset="0.469697" stop-color="#9CB2E8" stop-opacity="1"/><stop offset="0.477273" stop-color="#9BB1E8" stop-opacity="1"/><stop offset="0.484848" stop-color="#9AB1E8" stop-opacity="1"/><stop offset="0.492424" stop-color="#99B0E7" stop-opacity="1"/><stop offset="0.5" stop-color="#98AFE7" stop-opacity="1"/><stop offset="0.507576" stop-color="#97AEE7" stop-opacity="1"/><stop offset="0.515152" stop-color="#96AEE6" stop-opacity="1"/><stop offset="0.522727" stop-color="#95ADE6" stop-opacity="1"/><stop offset="0.530303" stop-color="#94ACE6" stop-opacity="1"/><stop offset="0.537879" stop-color="#93ABE5" stop-opacity="1"/><stop offset="0.545455" stop-color="#92ABE5" stop-opacity="1"/><stop offset="0.55303" stop-color="#91AAE5" stop-opacity="1"/><stop offset="0.560606" stop-color="#90A9E4" stop-opacity="1"/><stop offset="0.568182" stop-color="#8EA8E4" stop-opacity="1"/><stop offset="0.575758" stop-color="#8DA7E4" stop-opacity="1"/><stop offset="0.583333" stop-color="#8CA7E3" stop-opacity="1"/><stop offset="0.590909" stop-color="#8BA6E3" stop-opacity="1"/><stop offset="0.598485" stop-color="#8AA5E2" stop-opacity="1"/><stop offset="0.606061" stop-color="#88A4E2" stop-opacity="1"/><stop offset="0.613636" stop-color="#87A3E2" stop-opacity="1"/><stop offset="0.621212" stop-color="#86A2E1" stop-opacity="1"/><stop offset="0.628788" stop-color="#85A2E1" stop-opacity="1"/><stop offset="0.636364" stop-color="#84A1E1" stop-opacity="1"/><stop offset="0.643939" stop-color="#82A0E0" stop-opacity="1"/><stop offset="0.651515" stop-color="#819FE0" stop-opacity="1"/><stop offset="0.659091" stop-color="#809EDF" stop-opacity="1"/><stop offset="0.666667" stop-color="#7E9DDF" stop-opacity="1"/><stop offset="0.674242" stop-color="#7D9CDE" stop-opacity="1"/><stop offset="0.681818" stop-color="#7C9BDE" stop-opacity="1"/><stop offset="0.689394" stop-color="#7A9ADE" stop-opacity="1"/><stop offset="0.69697" stop-color="#7999DD" stop-opacity="1"/><stop offset="0.704545" stop-color="#7898DD" stop-opacity="1"/><stop offset="0.712121" stop-color="#7697DC" stop-opacity="1"/><stop offset="0.719697" stop-color="#7596DC" stop-opacity="1"/><stop offset="0.727273" stop-color="#7395DB" stop-opacity="1"/><stop offset="0.734848" stop-color="#7294DB" stop-opacity="1"/><stop offset="0.742424" stop-color="#7093DA" stop-opacity="1"/><stop offset="0.75" stop-color="#6F92DA" stop-opacity="1"/><stop offset="0.757576" stop-color="#6D91DA" stop-opacity="1"/><stop offset="0.765152" stop-color="#6C90D9" stop-opacity="1"/><stop offset="0.772727" stop-color="#6A8FD9" stop-opacity="1"/><stop offset="0.780303" stop-color="#698ED8" stop-opacity="1"/><stop offset="0.787879" stop-color="#678DD8" stop-opacity="1"/><stop offset="0.795455" stop-color="#668CD7" stop-opacity="1"/><stop offset="0.80303" stop-color="#648BD7" stop-opacity="1"/><stop offset="0.810606" stop-color="#638AD6" stop-opacity="1"/><stop offset="0.818182" stop-color="#6189D6" stop-opacity="1"/><stop offset="0.825758" stop-color="#6088D5" stop-opacity="1"/><stop offset="0.833333" stop-color="#5E86D5" stop-opacity="1"/><stop offset="0.840909" stop-color="#5C85D4" stop-opacity="1"/><stop offset="0.848485" stop-color="#5B84D4" stop-opacity="1"/><stop offset="0.856061" stop-color="#5983D3" stop-opacity="1"/><stop offset="0.863636" stop-color="#5782D3" stop-opacity="1"/><stop offset="0.871212" stop-color="#5681D2" stop-opacity="1"/><stop offset="0.878788" stop-color="#5480D2" stop-opacity="1"/><stop offset="0.886364" stop-color="#527ED1" stop-opacity="1"/><stop offset="0.893939" stop-color="#517DD0" stop-opacity="1"/><stop offset="0.901515" stop-color="#4F7CD0" stop-opacity="1"/><stop offset="0.909091" stop-color="#4D7BCF" stop-opacity="1"/><stop offset="0.916667" stop-color="#4C79CF" stop-opacity="1"/><stop offset="0.924242" stop-color="#4A78CE" stop-opacity="1"/><stop offset="0.931818" stop-color="#4877CE" stop-opacity="1"/><stop offset="0.939394" stop-color="#4676CD" stop-opacity="1"/><stop offset="0.94697" stop-color="#4475CD" stop-opacity="1"/><stop offset="0.954545" stop-color="#4373CC" stop-opacity="1"/><stop offset="0.962121" stop-color="#4172CB" stop-opacity="1"/><stop offset="0.969697" stop-color="#3F71CB" stop-opacity="1"/><stop offset="0.977273" stop-color="#3D6FCA" stop-opacity="1"/><stop offset="0.984848" stop-color="#3B6ECA" stop-opacity="1"/><stop offset="0.992424" stop-color="#396DC9" stop-opacity="1"/><stop offset="1" stop-color="#386CC9" stop-opacity="1"/></linearGradient></defs><g clip-path="url(#clip0)" transform="translate(-2754 -334)"><path d="M3347.19 438.132 3345.83 447.7 3333.53 485.74 3361.28 485.74 3348.71 447.735ZM3553.12 427.723 3553.12 507.639 3560.78 507.639C3569.64 507.639 3575.92 506.092 3579.61 502.999 3583.31 499.906 3585.97 495.543 3587.6 489.911 3589.23 484.279 3590.04 476.408 3590.04 466.299 3590.04 456.466 3589.09 448.943 3587.18 443.729 3585.27 438.514 3582.59 434.543 3579.13 431.815 3575.67 429.087 3569.91 427.723 3561.86 427.723ZM3442.14 427.723 3442.14 464.245 3459.38 464.245C3463.32 462.091 3466.27 459.863 3468.25 457.561 3470.23 455.258 3471.72 452.804 3472.75 450.198 3473.77 447.592 3474.28 445.006 3474.28 442.44 3474.28 437.974 3472.64 434.404 3469.36 431.732 3466.08 429.059 3459.92 427.723 3450.88 427.723ZM3536.74 414.583 3562.89 414.583C3574.61 414.583 3583.36 416.657 3589.15 420.804 3594.94 424.951 3599.26 431.156 3602.12 439.419 3604.98 447.682 3606.42 457.372 3606.42 468.49 3606.42 479.037 3604.91 488.359 3601.88 496.456 3598.86 504.552 3594.55 510.81 3588.93 515.229 3583.32 519.647 3574.64 521.857 3562.89 521.857L3536.74 521.857ZM3425.76 414.583 3455.05 414.583C3464.33 414.583 3471.24 415.566 3475.79 417.532 3480.34 419.498 3483.86 422.481 3486.36 426.483 3488.86 430.485 3490.12 434.776 3490.12 439.355 3490.12 443.525 3489.3 447.735 3487.67 451.985 3486.03 456.235 3483.79 460.026 3480.92 463.359 3478.06 466.691 3474.2 469.604 3469.34 472.097L3499.58 521.857 3481.19 521.857 3453.5 477.384 3442.14 477.384 3442.14 521.857 3425.76 521.857ZM3339.95 414.583 3355.8 414.583 3388.57 521.857 3371.79 521.857 3364.65 498.879 3329.95 498.879 3322.85 521.857 3307.38 521.857ZM3196.47 414.583 3211.48 414.583 3218.69 479.083 3229.86 414.583 3244.53 414.583 3257.09 480.995 3265 414.583 3278.27 414.583 3265.44 521.857 3250.2 521.857 3236.49 449.647 3236.35 448.572 3236.17 449.999 3223.88 521.857 3208.73 521.857ZM3092.5 414.583 3106.96 414.583 3144.33 485.046 3145.85 488.945 3145.73 485.603 3145.73 414.583 3161.02 414.583 3161.02 521.857 3146.25 521.857 3109.85 452.526 3107.52 442.45 3107.79 452.841 3107.79 521.857 3092.5 521.857ZM3683.57 411.416C3691.15 411.416 3698.83 412.596 3706.61 414.955L3706.61 428.936C3697.82 426.016 3689.88 424.556 3682.79 424.556 3677.37 424.556 3673.02 425.961 3669.74 428.771 3666.47 431.58 3664.83 434.948 3664.83 438.873 3664.83 442.807 3666.12 446.106 3668.68 448.771 3671.24 451.436 3674.51 453.882 3678.47 456.108L3683.99 459.426 3690.55 463.368 3696.65 467.525C3708.14 474.213 3713.89 483.096 3713.89 494.173 3713.89 502.611 3710.81 509.863 3704.66 515.927 3698.5 521.992 3688.75 525.024 3675.39 525.024 3671.16 525.024 3667.13 524.666 3663.28 523.951 3659.43 523.236 3654.15 521.669 3647.45 519.251L3647.45 504.135C3659.29 509.301 3669.51 511.884 3678.1 511.884 3681.62 511.884 3684.95 511.224 3688.08 509.904 3691.21 508.584 3693.56 506.707 3695.14 504.275 3696.72 501.842 3697.52 499.204 3697.52 496.361 3697.52 493.039 3696.4 489.886 3694.17 486.9 3691.93 483.914 3687.63 480.555 3681.25 476.823L3674.43 472.874 3667.49 468.859C3654.8 461.371 3648.46 451.985 3648.46 440.704 3648.46 432.461 3651.32 425.519 3657.05 419.878 3662.78 414.237 3671.62 411.416 3683.57 411.416Z" fill="url(#fill1)" fill-rule="evenodd"/><text fill="#000000" fill-opacity="0" font-family="Arial,Arial_MSFontService,sans-serif" font-size="113.607" direction="ltr" writing-mode="lr-tb" x="3092.5" y="510.823">NWARDS</text><path d="M2814 493C2814 425.621 2868.62 371 2936 371 3003.38 371 3058 425.621 3058 493 3058 560.379 3003.38 615 2936 615 2868.62 615 2814 560.379 2814 493Z" stroke="#B5C3F0" stroke-width="21.7708" stroke-linecap="butt" stroke-linejoin="miter" stroke-miterlimit="8" stroke-opacity="1" fill="none" fill-rule="evenodd"/><path d="M3012.61 337.463C3014.13 335.143 3020.59 339.568 3019.26 342.112L2944.66 483.561 2946.92 485.135C2948.91 488.237 2949.45 491.851 2948.72 495.187L2945.73 499.48 2946.07 499.43C2947.97 502.434 2947.38 503.74 2951.78 508.443 2956.19 513.147 2963.06 511.26 2966.17 516.803L3029.28 636.966C3030.53 639.438 3023.47 642.817 3021.93 640.397L2936.59 504.726 2936.63 504.692 2932.83 505.372C2929.5 504.642 2926.44 502.64 2924.45 499.538L2923.6 494.802 2922.32 498.051C2918.77 498.199 2917.93 497.033 2911.66 498.494 2905.38 499.954 2903.58 506.846 2897.23 506.769L2761.61 501.33C2758.84 501.176 2759.45 493.37 2762.31 493.247L2922.48 487.197 2922.95 489.045 2928.48 481.102 2936.27 479.707 2935.16 478.325C2936.81 475.172 2938.24 475.031 2940.11 468.865 2941.98 462.699 2936.91 457.697 2940.15 452.229Z" fill="#2B5CAF" fill-rule="evenodd" fill-opacity="1"/><path d="M3677.52 534C3688.28 534 3697 542.73 3697 553.5 3697 564.269 3688.28 573 3677.52 573 3666.76 573 3658.03 564.269 3658.03 553.5 3658.03 542.73 3666.76 534 3677.52 534ZM3567.11 534C3577.87 534 3586.59 542.73 3586.59 553.5 3586.59 564.269 3577.87 573 3567.11 573 3556.35 573 3547.63 564.269 3547.63 553.5 3547.63 542.73 3556.35 534 3567.11 534ZM3456.7 534C3467.46 534 3476.19 542.73 3476.19 553.5 3476.19 564.269 3467.46 573 3456.7 573 3445.94 573 3437.22 564.269 3437.22 553.5 3437.22 542.73 3445.94 534 3456.7 534ZM3346.3 534C3357.06 534 3365.78 542.73 3365.78 553.5 3365.78 564.269 3357.06 573 3346.3 573 3335.54 573 3326.81 564.269 3326.81 553.5 3326.81 542.73 3335.54 534 3346.3 534ZM3235.89 534C3246.65 534 3255.37 542.73 3255.37 553.5 3255.37 564.269 3246.65 573 3235.89 573 3225.13 573 3216.41 564.269 3216.41 553.5 3216.41 542.73 3225.13 534 3235.89 534ZM3125.48 534C3136.24 534 3144.97 542.73 3144.97 553.5 3144.97 564.269 3136.24 573 3125.48 573 3114.72 573 3106 564.269 3106 553.5 3106 542.73 3114.72 534 3125.48 534Z" fill="url(#fill2)" fill-rule="evenodd"/></g></svg>