<svg width="1041" height="312" xmlns="http://www.w3.org/2000/svg" xmlns:xlink="http://www.w3.org/1999/xlink" xml:space="preserve" overflow="hidden"><defs><clipPath id="clip0"><rect x="508" y="334" width="1041" height="312"/></clipPath><linearGradient x1="834.617" y1="471.761" x2="1498.05" y2="471.761" gradientUnits="userSpaceOnUse" spreadMethod="reflect" id="fill1"><stop offset="0" stop-color="#1E3E77" stop-opacity="1"/><stop offset="0.5" stop-color="#2F5CAC" stop-opacity="1"/><stop offset="1" stop-color="#3A6FCE" stop-opacity="1"/></linearGradient><linearGradient x1="856" y1="553.5" x2="1447" y2="553.5" gradientUnits="userSpaceOnUse" spreadMethod="reflect" id="fill2"><stop offset="0" stop-color="#1E3E77" stop-opacity="1"/><stop offset="0.5" stop-color="#2F5CAC" stop-opacity="1"/><stop offset="1" stop-color="#3A6FCE" stop-opacity="1"/></linearGradient></defs><g clip-path="url(#clip0)" transform="translate(-508 -334)"><path d="M1097.8 438.132 1096.44 447.7 1084.14 485.74 1111.89 485.74 1099.32 447.735ZM1303.73 427.723 1303.73 507.639 1311.39 507.639C1320.25 507.639 1326.53 506.092 1330.22 502.999 1333.92 499.906 1336.59 495.543 1338.21 489.911 1339.84 484.279 1340.65 476.408 1340.65 466.299 1340.65 456.466 1339.7 448.943 1337.79 443.729 1335.89 438.514 1333.2 434.543 1329.74 431.815 1326.28 429.087 1320.53 427.723 1312.47 427.723ZM1192.75 427.723 1192.75 464.245 1210 464.245C1213.93 462.091 1216.88 459.863 1218.86 457.561 1220.84 455.258 1222.34 452.804 1223.36 450.198 1224.38 447.592 1224.89 445.006 1224.89 442.44 1224.89 437.974 1223.25 434.404 1219.97 431.732 1216.69 429.059 1210.53 427.723 1201.49 427.723ZM1287.35 414.583 1313.5 414.583C1325.22 414.583 1333.97 416.657 1339.76 420.804 1345.55 424.951 1349.87 431.156 1352.73 439.419 1355.6 447.682 1357.03 457.372 1357.03 468.49 1357.03 479.037 1355.52 488.359 1352.49 496.456 1349.47 504.552 1345.16 510.81 1339.54 515.229 1333.93 519.647 1325.25 521.857 1313.5 521.857L1287.35 521.857ZM1176.38 414.583 1205.66 414.583C1214.94 414.583 1221.85 415.566 1226.4 417.532 1230.95 419.498 1234.47 422.481 1236.97 426.483 1239.48 430.485 1240.73 434.776 1240.73 439.355 1240.73 443.525 1239.91 447.735 1238.28 451.985 1236.64 456.235 1234.4 460.026 1231.53 463.359 1228.67 466.691 1224.81 469.604 1219.95 472.097L1250.19 521.857 1231.8 521.857 1204.11 477.384 1192.75 477.384 1192.75 521.857 1176.38 521.857ZM1090.56 414.583 1106.41 414.583 1139.18 521.857 1122.4 521.857 1115.27 498.879 1080.56 498.879 1073.46 521.857 1057.99 521.857ZM947.077 414.583 962.092 414.583 969.3 479.083 980.474 414.583 995.145 414.583 1007.7 480.995 1015.61 414.583 1028.88 414.583 1016.05 521.857 1000.81 521.857 987.102 449.647 986.957 448.572 986.785 449.999 974.491 521.857 959.342 521.857ZM843.107 414.583 857.566 414.583 894.946 485.046 896.465 488.945 896.34 485.603 896.34 414.583 911.636 414.583 911.636 521.857 896.863 521.857 860.463 452.526 858.134 442.45 858.403 452.841 858.403 521.857 843.107 521.857ZM1434.18 411.416C1441.76 411.416 1449.44 412.596 1457.22 414.955L1457.22 428.936C1448.43 426.016 1440.5 424.556 1433.41 424.556 1427.98 424.556 1423.63 425.961 1420.36 428.771 1417.08 431.58 1415.45 434.948 1415.45 438.873 1415.45 442.807 1416.73 446.106 1419.29 448.771 1421.85 451.436 1425.12 453.882 1429.08 456.108L1434.6 459.426 1441.16 463.368 1447.26 467.525C1458.75 474.213 1464.5 483.096 1464.5 494.173 1464.5 502.611 1461.42 509.863 1455.27 515.927 1449.12 521.992 1439.36 525.024 1426 525.024 1421.77 525.024 1417.74 524.666 1413.89 523.951 1410.04 523.236 1404.77 521.669 1398.06 519.251L1398.06 504.135C1409.9 509.301 1420.12 511.884 1428.71 511.884 1432.23 511.884 1435.56 511.224 1438.69 509.904 1441.82 508.584 1444.17 506.707 1445.75 504.275 1447.34 501.842 1448.13 499.204 1448.13 496.361 1448.13 493.039 1447.01 489.886 1444.78 486.9 1442.54 483.914 1438.24 480.555 1431.86 476.823L1425.04 472.874 1418.1 468.859C1405.41 461.371 1399.07 451.985 1399.07 440.704 1399.07 432.461 1401.93 425.519 1407.66 419.878 1413.39 414.237 1422.23 411.416 1434.18 411.416Z" fill="url(#fill1)" fill-rule="evenodd"/><text fill="#000000" fill-opacity="0" font-family="Arial,Arial_MSFontService,sans-serif" font-size="113.607" direction="ltr" writing-mode="lr-tb" x="843.107" y="510.823">NWARDS</text><path d="M565 493C565 425.621 619.398 371 686.5 371 753.603 371 808 425.621 808 493 808 560.379 753.603 615 686.5 615 619.398 615 565 560.379 565 493Z" stroke="#1E4079" stroke-width="21.7708" stroke-linecap="butt" stroke-linejoin="miter" stroke-miterlimit="8" stroke-opacity="1" fill="none" fill-rule="evenodd"/><path d="M763.224 337.463C764.74 335.143 771.199 339.568 769.874 342.112L695.269 483.561 697.529 485.135C699.517 488.237 700.06 491.851 699.331 495.187L696.343 499.48 696.678 499.43C698.584 502.434 697.992 503.74 702.395 508.443 706.798 513.147 713.666 511.26 716.778 516.803L779.89 636.966C781.141 639.438 774.078 642.817 772.538 640.397L687.203 504.726 687.237 504.692 683.443 505.372C680.107 504.642 677.05 502.64 675.061 499.538L674.212 494.802 672.934 498.051C669.38 498.199 668.545 497.033 662.269 498.494 655.994 499.954 654.194 506.846 647.838 506.769L512.218 501.33C509.451 501.176 510.057 493.37 512.924 493.247L673.087 487.197 673.565 489.045 679.094 481.102 686.876 479.707 685.774 478.325C687.422 475.172 688.849 475.031 690.719 468.865 692.588 462.699 687.518 457.697 690.76 452.229Z" fill="#C9C9C9" fill-rule="evenodd" fill-opacity="1"/><path d="M1427.52 534C1438.28 534 1447 542.73 1447 553.5 1447 564.269 1438.28 573 1427.52 573 1416.76 573 1408.03 564.269 1408.03 553.5 1408.03 542.73 1416.76 534 1427.52 534ZM1317.11 534C1327.87 534 1336.59 542.73 1336.59 553.5 1336.59 564.269 1327.87 573 1317.11 573 1306.35 573 1297.63 564.269 1297.63 553.5 1297.63 542.73 1306.35 534 1317.11 534ZM1206.7 534C1217.46 534 1226.19 542.73 1226.19 553.5 1226.19 564.269 1217.46 573 1206.7 573 1195.94 573 1187.22 564.269 1187.22 553.5 1187.22 542.73 1195.94 534 1206.7 534ZM1096.3 534C1107.06 534 1115.78 542.73 1115.78 553.5 1115.78 564.269 1107.06 573 1096.3 573 1085.54 573 1076.81 564.269 1076.81 553.5 1076.81 542.73 1085.54 534 1096.3 534ZM985.89 534C996.65 534 1005.37 542.73 1005.37 553.5 1005.37 564.269 996.65 573 985.89 573 975.13 573 966.407 564.269 966.407 553.5 966.407 542.73 975.13 534 985.89 534ZM875.483 534C886.243 534 894.966 542.73 894.966 553.5 894.966 564.269 886.243 573 875.483 573 864.723 573 856 564.269 856 553.5 856 542.73 864.723 534 875.483 534Z" fill="url(#fill2)" fill-rule="evenodd"/></g></svg>