<svg width="1214" height="1238" xmlns="http://www.w3.org/2000/svg" xmlns:xlink="http://www.w3.org/1999/xlink" xml:space="preserve" overflow="hidden"><defs><clipPath id="clip0"><rect x="385" y="852" width="1214" height="1238"/></clipPath><linearGradient x1="1507.5" y1="1261" x2="1507.5" y2="1800" gradientUnits="userSpaceOnUse" spreadMethod="reflect" id="fill1"><stop offset="0" stop-color="#1E3E77" stop-opacity="1"/><stop offset="0.0116279" stop-color="#1E3F78" stop-opacity="1"/><stop offset="0.0232558" stop-color="#1F407A" stop-opacity="1"/><stop offset="0.0348837" stop-color="#1F417C" stop-opacity="1"/><stop offset="0.0465116" stop-color="#20427E" stop-opacity="1"/><stop offset="0.0581395" stop-color="#204380" stop-opacity="1"/><stop offset="0.0697674" stop-color="#214482" stop-opacity="1"/><stop offset="0.0813954" stop-color="#224583" stop-opacity="1"/><stop offset="0.0930233" stop-color="#224685" stop-opacity="1"/><stop offset="0.104651" stop-color="#234787" stop-opacity="1"/><stop offset="0.116279" stop-color="#234888" stop-opacity="1"/><stop offset="0.127907" stop-color="#24498A" stop-opacity="1"/><stop offset="0.139535" stop-color="#244A8C" stop-opacity="1"/><stop offset="0.151163" stop-color="#254A8E" stop-opacity="1"/><stop offset="0.162791" stop-color="#254B8F" stop-opacity="1"/><stop offset="0.174419" stop-color="#264C91" stop-opacity="1"/><stop offset="0.186047" stop-color="#264D92" stop-opacity="1"/><stop offset="0.197674" stop-color="#274E94" stop-opacity="1"/><stop offset="0.209302" stop-color="#274F95" stop-opacity="1"/><stop offset="0.22093" stop-color="#285097" stop-opacity="1"/><stop offset="0.232558" stop-color="#285199" stop-opacity="1"/><stop offset="0.244186" stop-color="#29529A" stop-opacity="1"/><stop offset="0.255814" stop-color="#29529C" stop-opacity="1"/><stop offset="0.267442" stop-color="#2A539D" stop-opacity="1"/><stop offset="0.27907" stop-color="#2A549E" stop-opacity="1"/><stop offset="0.290698" stop-color="#2B55A0" stop-opacity="1"/><stop offset="0.302326" stop-color="#2B56A1" stop-opacity="1"/><stop offset="0.313953" stop-color="#2C56A3" stop-opacity="1"/><stop offset="0.325581" stop-color="#2C57A4" stop-opacity="1"/><stop offset="0.337209" stop-color="#2D58A5" stop-opacity="1"/><stop offset="0.348837" stop-color="#2D59A7" stop-opacity="1"/><stop offset="0.360465" stop-color="#2D59A8" stop-opacity="1"/><stop offset="0.372093" stop-color="#2E5AA9" stop-opacity="1"/><stop offset="0.383721" stop-color="#2E5BAA" stop-opacity="1"/><stop offset="0.395349" stop-color="#2F5BAC" stop-opacity="1"/><stop offset="0.406977" stop-color="#2F5CAD" stop-opacity="1"/><stop offset="0.418605" stop-color="#2F5DAE" stop-opacity="1"/><stop offset="0.430233" stop-color="#305DAF" stop-opacity="1"/><stop offset="0.44186" stop-color="#305EB0" stop-opacity="1"/><stop offset="0.453488" stop-color="#305FB1" stop-opacity="1"/><stop offset="0.465116" stop-color="#315FB3" stop-opacity="1"/><stop offset="0.476744" stop-color="#3160B4" stop-opacity="1"/><stop offset="0.488372" stop-color="#3261B5" stop-opacity="1"/><stop offset="0.5" stop-color="#3261B6" stop-opacity="1"/><stop offset="0.511628" stop-color="#3262B7" stop-opacity="1"/><stop offset="0.523256" stop-color="#3362B8" stop-opacity="1"/><stop offset="0.534884" stop-color="#3363B9" stop-opacity="1"/><stop offset="0.546512" stop-color="#3363BA" stop-opacity="1"/><stop offset="0.55814" stop-color="#3364BB" stop-opacity="1"/><stop offset="0.569767" stop-color="#3464BC" stop-opacity="1"/><stop offset="0.581395" stop-color="#3465BD" stop-opacity="1"/><stop offset="0.593023" stop-color="#3465BD" stop-opacity="1"/><stop offset="0.604651" stop-color="#3566BE" stop-opacity="1"/><stop offset="0.616279" stop-color="#3566BF" stop-opacity="1"/><stop offset="0.627907" stop-color="#3567C0" stop-opacity="1"/><stop offset="0.639535" stop-color="#3567C1" stop-opacity="1"/><stop offset="0.651163" stop-color="#3668C1" stop-opacity="1"/><stop offset="0.662791" stop-color="#3668C2" stop-opacity="1"/><stop offset="0.674419" stop-color="#3669C3" stop-opacity="1"/><stop offset="0.686047" stop-color="#3669C4" stop-opacity="1"/><stop offset="0.697674" stop-color="#3769C4" stop-opacity="1"/><stop offset="0.709302" stop-color="#376AC5" stop-opacity="1"/><stop offset="0.72093" stop-color="#376AC6" stop-opacity="1"/><stop offset="0.732558" stop-color="#376AC6" stop-opacity="1"/><stop offset="0.744186" stop-color="#376BC7" stop-opacity="1"/><stop offset="0.755814" stop-color="#386BC7" stop-opacity="1"/><stop offset="0.767442" stop-color="#386BC8" stop-opacity="1"/><stop offset="0.77907" stop-color="#386CC8" stop-opacity="1"/><stop offset="0.790698" stop-color="#386CC9" stop-opacity="1"/><stop offset="0.802326" stop-color="#386CC9" stop-opacity="1"/><stop offset="0.813953" stop-color="#386CCA" stop-opacity="1"/><stop offset="0.825581" stop-color="#386DCA" stop-opacity="1"/><stop offset="0.837209" stop-color="#396DCB" stop-opacity="1"/><stop offset="0.848837" stop-color="#396DCB" stop-opacity="1"/><stop offset="0.860465" stop-color="#396DCB" stop-opacity="1"/><stop offset="0.872093" stop-color="#396DCC" stop-opacity="1"/><stop offset="0.883721" stop-color="#396ECC" stop-opacity="1"/><stop offset="0.895349" stop-color="#396ECC" stop-opacity="1"/><stop offset="0.906977" stop-color="#396ECC" stop-opacity="1"/><stop offset="0.918605" stop-color="#396ECD" stop-opacity="1"/><stop offset="0.930233" stop-color="#396ECD" stop-opacity="1"/><stop offset="0.94186" stop-color="#396ECD" stop-opacity="1"/><stop offset="0.953488" stop-color="#396ECD" stop-opacity="1"/><stop offset="0.965116" stop-color="#396ECD" stop-opacity="1"/><stop offset="0.976744" stop-color="#396ECD" stop-opacity="1"/><stop offset="0.988372" stop-color="#396ECD" stop-opacity="1"/><stop offset="1" stop-color="#3A6FCE" stop-opacity="1"/></linearGradient></defs><g clip-path="url(#clip0)" transform="translate(-385 -852)"><path d="M1103.38 994C1239.9 994 1363.49 1049.29 1452.96 1138.69L1461 1147.53 1395.1 1210.94 1388.57 1203.03C1315.58 1130.1 1214.75 1084.99 1103.38 1084.99 880.633 1084.99 700.061 1265.42 700.061 1488 700.061 1710.58 880.633 1891.01 1103.38 1891.01 1172.99 1891.01 1238.48 1873.39 1295.62 1842.37L1319.61 1827.81 1360.56 1909.31 1339.03 1922.38C1268.98 1960.4 1188.7 1982 1103.38 1982 830.341 1982 609 1760.83 609 1488 609 1215.17 830.341 994 1103.38 994Z" fill="#1E4079" fill-rule="evenodd" fill-opacity="1"/><path d="M1414.76 857.215C1420.91 847.808 1447.1 865.749 1441.72 876.066L1139.21 1449.63 1148.37 1456.01C1156.43 1468.59 1158.64 1483.25 1155.68 1496.77L1143.56 1514.18 1144.92 1513.98C1152.65 1526.16 1150.25 1531.45 1168.1 1550.53 1185.96 1569.6 1213.81 1561.95 1226.43 1584.42L1482.34 2071.67C1487.41 2081.7 1458.77 2095.4 1452.53 2085.59L1106.5 1535.45 1106.64 1535.31 1091.25 1538.07C1077.73 1535.11 1065.33 1526.99 1057.27 1514.41L1053.82 1495.21 1048.64 1508.39C1034.23 1508.98 1030.84 1504.26 1005.4 1510.18 979.95 1516.1 972.65 1544.05 946.877 1543.74L396.951 1521.68C385.731 1521.06 388.188 1489.41 399.811 1488.91L1049.26 1464.37 1051.2 1471.87 1073.62 1439.66 1105.17 1434 1100.71 1428.4C1107.39 1415.61 1113.17 1415.04 1120.76 1390.04 1128.34 1365.04 1107.78 1344.75 1120.92 1322.58Z" fill="#C9C9C9" fill-rule="evenodd" fill-opacity="1"/><path d="M1382 1178C1382 1153.15 1402.15 1133 1427 1133 1451.85 1133 1472 1153.15 1472 1178 1472 1202.85 1451.85 1223 1427 1223 1402.15 1223 1382 1202.85 1382 1178Z" fill="#1E4079" fill-rule="evenodd" fill-opacity="1"/><path d="M1464.03 1710.01C1488.89 1710.01 1509.05 1730.15 1509.05 1755 1509.05 1779.85 1488.89 1800 1464.03 1800 1439.16 1800 1419 1779.85 1419 1755 1419 1730.15 1439.16 1710.01 1464.03 1710.01ZM1533.09 1568.81C1557.95 1568.81 1578.11 1588.96 1578.11 1613.81 1578.11 1638.66 1557.95 1658.81 1533.09 1658.81 1508.22 1658.81 1488.06 1638.66 1488.06 1613.81 1488.06 1588.96 1508.22 1568.81 1533.09 1568.81ZM1550.97 1413.73C1575.84 1413.73 1596 1433.88 1596 1458.73 1596 1483.58 1575.84 1503.72 1550.97 1503.72 1526.11 1503.72 1505.95 1483.58 1505.95 1458.73 1505.95 1433.88 1526.11 1413.73 1550.97 1413.73ZM1516.36 1261C1541.23 1261 1561.38 1281.14 1561.38 1306 1561.38 1330.85 1541.23 1350.99 1516.36 1350.99 1491.49 1350.99 1471.33 1330.85 1471.33 1306 1471.33 1281.14 1491.49 1261 1516.36 1261Z" fill="url(#fill1)" fill-rule="evenodd"/></g></svg>